<svg width="41" height="31" viewBox="0 0 41 31" fill="none" xmlns="http://www.w3.org/2000/svg">
<path d="M39.3099 9.33661C39.1996 9.28682 36.5107 8.07559 20.5911 0.902218C20.2745 0.759482 19.9157 0.759482 19.5991 0.902218L0.880305 9.33661C-0.124111 9.78826 -0.11444 11.2708 0.880305 11.7177C4.51673 13.356 10.4616 16.035 19.5991 20.1521C19.9138 20.294 20.2726 20.2957 20.5911 20.1521C21.4588 19.7611 33.2817 14.4338 33.8222 14.1904V28.0083C33.8222 28.7073 34.339 29.3085 35.0104 29.3409C35.727 29.3756 36.318 28.7823 36.318 28.0448V13.7198C36.318 13.5159 36.1728 13.3438 35.9783 13.3177C33.636 13.0039 22.5897 11.5214 19.9352 11.1654C19.1674 11.0657 18.689 10.2573 18.8909 9.53774C19.0492 8.93006 19.604 8.54297 20.1661 8.58319C20.2221 8.5866 38.0058 10.9729 37.9931 10.9712C38.3254 11.0156 38.5985 11.2369 38.7297 11.5369C38.8214 11.7466 39.0549 11.8427 39.2555 11.7449C39.5913 11.5812 39.8825 11.3658 40.015 10.8783C40.1855 10.2466 39.8774 9.59175 39.3099 9.33661Z" fill="#F2F2F2"/>
<path d="M18.6061 22.5332L8.16087 17.8268C7.90333 17.7108 7.61584 17.9071 7.61584 18.1989V22.8544C7.61584 27.22 13.0973 30.64 20.095 30.64C27.0927 30.64 32.5742 27.22 32.5742 22.8544V18.1989C32.5742 17.9071 32.2867 17.7109 32.0291 17.8268L21.5831 22.5332C20.6347 22.9619 19.5554 22.9616 18.6061 22.5332Z" fill="#F2F2F2"/>
</svg>
