<svg width="45" height="43" viewBox="0 0 45 43" fill="none" xmlns="http://www.w3.org/2000/svg">
<path d="M22.4412 0C10.1128 0 0.0810547 9.49054 0.0810547 21.1584C0.0810547 32.8263 10.1128 42.3168 22.4412 42.3168C34.7696 42.3168 44.8014 32.8263 44.8014 21.1584C44.8014 9.49054 34.7696 0 22.4412 0ZM22.4412 40.9075C10.9341 40.9075 1.57313 32.0477 1.57313 21.1584C1.57313 10.2691 10.9341 1.40933 22.4412 1.40933C33.9483 1.40933 43.3093 10.2691 43.3093 21.1584C43.3093 32.0477 33.9483 40.9075 22.4412 40.9075Z" fill="white"/>
<path d="M27.3216 9.28206H23.6012C18.8628 9.2372 18.2576 12.0123 18.2576 15.0157V17.1996H16.1659C16.0714 17.1877 15.9752 17.1965 15.8849 17.2255C15.7945 17.2544 15.7125 17.3026 15.645 17.3665C15.5776 17.4303 15.5266 17.508 15.496 17.5935C15.4654 17.679 15.4561 17.77 15.4687 17.8594V21.8182C15.4561 21.9077 15.4654 21.9987 15.496 22.0842C15.5266 22.1697 15.5776 22.2474 15.645 22.3112C15.7125 22.375 15.7945 22.4233 15.8849 22.4522C15.9752 22.4812 16.0714 22.49 16.1659 22.478H18.2576V32.375C18.246 32.4646 18.2562 32.5556 18.2874 32.6409C18.3186 32.7263 18.37 32.8037 18.4377 32.8674C18.5054 32.931 18.5875 32.9792 18.6779 33.0082C18.7682 33.0373 18.8644 33.0463 18.9591 33.0348H23.2191C23.6305 33.0797 23.9638 32.7643 23.8327 32.375L23.8355 22.478H27.3216C27.4162 22.49 27.5123 22.4812 27.6027 22.4522C27.693 22.4233 27.7751 22.375 27.8426 22.3112C27.91 22.2474 27.961 22.1697 27.9916 22.0842C28.0221 21.9987 28.0315 21.9077 28.0189 21.8182V17.8594C28.0315 17.77 28.0221 17.679 27.9916 17.5935C27.961 17.508 27.91 17.4303 27.8426 17.3665C27.7751 17.3026 27.693 17.2544 27.6027 17.2255C27.5123 17.1965 27.4162 17.1877 27.3216 17.1996H23.8313L23.8355 15.2203C23.9707 14.377 23.9707 14.5143 24.7977 14.5605H27.2923C27.4862 14.5195 27.6926 14.542 27.8376 14.4087C27.9826 14.2754 28.0663 14.0933 28.0175 13.9007V9.94186C28.0303 9.85247 28.0212 9.76147 27.9908 9.67596C27.9604 9.59045 27.9096 9.51274 27.8422 9.44888C27.7749 9.38502 27.6929 9.33674 27.6026 9.30781C27.5123 9.27887 27.4161 9.27006 27.3216 9.28206ZM26.5756 13.167L24.8269 13.1036C22.6613 13.1036 22.4801 14.216 22.4801 15.3548L22.4745 17.8568C22.4743 17.9495 22.4934 18.0412 22.5308 18.1269C22.5681 18.2125 22.6229 18.2904 22.6921 18.3559C22.7613 18.4215 22.8434 18.4735 22.9338 18.509C23.0243 18.5445 23.1212 18.5628 23.2191 18.5628H26.6244V21.1123H23.2219C23.0243 21.1123 22.8347 21.1865 22.6949 21.3186C22.555 21.4507 22.4762 21.6299 22.4759 21.8169L22.4745 31.7152H19.6521V21.8182C19.6521 21.429 19.3718 21.1136 18.9591 21.1136H16.8632V18.5641H18.9591C19.0569 18.5643 19.1538 18.5461 19.2443 18.5108C19.3347 18.4755 19.4169 18.4237 19.4862 18.3583C19.6256 18.225 19.6507 18.0455 19.6507 17.8581V15.0144C19.6507 12.0559 20.2824 10.6465 23.5998 10.6465H26.5742V13.167H26.5756Z" fill="#FFF59C"/>
</svg>
