<svg width="1071" height="377" viewBox="0 0 1071 377" fill="none" xmlns="http://www.w3.org/2000/svg">
<line x1="521" y1="303.48" x2="1071" y2="303.48" stroke="white" stroke-opacity="0.21"/>
<line x1="521" y1="279.002" x2="1071" y2="279.002" stroke="white" stroke-opacity="0.21"/>
<line x1="521" y1="254.524" x2="1071" y2="254.524" stroke="white" stroke-opacity="0.21"/>
<line x1="521" y1="156.611" x2="1071" y2="156.611" stroke="white" stroke-opacity="0.21"/>
<line x1="521" y1="132.133" x2="1071" y2="132.133" stroke="white" stroke-opacity="0.21"/>
<line x1="521" y1="107.655" x2="1071" y2="107.655" stroke="white" stroke-opacity="0.21"/>
<line x1="521" y1="230.046" x2="1071" y2="230.046" stroke="white" stroke-opacity="0.21"/>
<line x1="521" y1="205.568" x2="1071" y2="205.568" stroke="white" stroke-opacity="0.21"/>
<line x1="521" y1="181.09" x2="1071" y2="181.09" stroke="white" stroke-opacity="0.21"/>
<line y1="-0.5" x2="243.922" y2="-0.5" transform="matrix(0.00127661 0.999999 -1 0.000252527 553.201 84.0786)" stroke="white" stroke-opacity="0.21"/>
<line y1="-0.5" x2="243.922" y2="-0.5" transform="matrix(0.00130826 0.999999 -1 0.000246417 692.311 84.0427)" stroke="white" stroke-opacity="0.21"/>
<line y1="-0.5" x2="243.922" y2="-0.5" transform="matrix(0.00133508 0.999999 -1 0.000241467 727.089 84.0334)" stroke="white" stroke-opacity="0.21"/>
<line y1="-0.5" x2="243.922" y2="-0.5" transform="matrix(0.00135225 0.999999 -1 0.000238401 761.867 84.0247)" stroke="white" stroke-opacity="0.21"/>
<line y1="-0.5" x2="243.922" y2="-0.5" transform="matrix(0.00129386 0.999999 -1 0.00024916 796.644 84.0171)" stroke="white" stroke-opacity="0.21"/>
<line y1="-0.5" x2="243.922" y2="-0.5" transform="matrix(0.00127332 0.999999 -1 0.000253179 831.422 84.0085)" stroke="white" stroke-opacity="0.21"/>
<line y1="-0.5" x2="243.921" y2="-0.5" transform="matrix(0.000525484 1 -1 0.000613488 866.199 84)" stroke="white" stroke-opacity="0.21"/>
<line y1="-0.5" x2="243.922" y2="-0.5" transform="matrix(0.00130826 0.999999 -1 0.000246417 900.977 84.0427)" stroke="white" stroke-opacity="0.21"/>
<line y1="-0.5" x2="243.922" y2="-0.5" transform="matrix(0.00133508 0.999999 -1 0.000241467 935.754 84.0334)" stroke="white" stroke-opacity="0.21"/>
<line y1="-0.5" x2="243.922" y2="-0.5" transform="matrix(0.00135225 0.999999 -1 0.000238401 970.532 84.0247)" stroke="white" stroke-opacity="0.21"/>
<line y1="-0.5" x2="243.922" y2="-0.5" transform="matrix(0.00129386 0.999999 -1 0.00024916 1005.31 84.0171)" stroke="white" stroke-opacity="0.21"/>
<line y1="-0.5" x2="243.922" y2="-0.5" transform="matrix(0.00127332 0.999999 -1 0.000253179 1040.09 84.0085)" stroke="white" stroke-opacity="0.21"/>
<line y1="-0.5" x2="243.922" y2="-0.5" transform="matrix(0.00127661 0.999999 -1 0.000252527 587.979 84.0703)" stroke="white" stroke-opacity="0.21"/>
<line y1="-0.5" x2="243.922" y2="-0.5" transform="matrix(0.00127661 0.999999 -1 0.000252527 622.757 84.0615)" stroke="white" stroke-opacity="0.21"/>
<line y1="-0.5" x2="243.922" y2="-0.5" transform="matrix(0.00130003 0.999999 -1 0.000247977 657.534 84.0515)" stroke="white" stroke-opacity="0.21"/>
<line y1="303.48" x2="550" y2="303.48" stroke="white" stroke-opacity="0.21"/>
<line y1="279.002" x2="550" y2="279.002" stroke="white" stroke-opacity="0.21"/>
<line y1="254.524" x2="550" y2="254.524" stroke="white" stroke-opacity="0.21"/>
<line y1="156.611" x2="550" y2="156.611" stroke="white" stroke-opacity="0.21"/>
<line y1="132.133" x2="550" y2="132.133" stroke="white" stroke-opacity="0.21"/>
<line y1="107.655" x2="550" y2="107.655" stroke="white" stroke-opacity="0.21"/>
<line y1="230.046" x2="550" y2="230.046" stroke="white" stroke-opacity="0.21"/>
<line y1="205.568" x2="550" y2="205.568" stroke="white" stroke-opacity="0.21"/>
<line y1="181.09" x2="550" y2="181.09" stroke="white" stroke-opacity="0.21"/>
<line y1="-0.5" x2="243.922" y2="-0.5" transform="matrix(0.00127661 0.999999 -1 0.000252527 32.2014 84.0786)" stroke="white" stroke-opacity="0.21"/>
<line y1="-0.5" x2="243.922" y2="-0.5" transform="matrix(0.00130826 0.999999 -1 0.000246417 171.311 84.0427)" stroke="white" stroke-opacity="0.21"/>
<line y1="-0.5" x2="243.922" y2="-0.5" transform="matrix(0.00133508 0.999999 -1 0.000241467 206.089 84.0334)" stroke="white" stroke-opacity="0.21"/>
<line y1="-0.5" x2="243.922" y2="-0.5" transform="matrix(0.00135225 0.999999 -1 0.000238401 240.867 84.0247)" stroke="white" stroke-opacity="0.21"/>
<line y1="-0.5" x2="243.922" y2="-0.5" transform="matrix(0.00129386 0.999999 -1 0.00024916 275.644 84.0171)" stroke="white" stroke-opacity="0.21"/>
<line y1="-0.5" x2="243.922" y2="-0.5" transform="matrix(0.00127332 0.999999 -1 0.000253179 310.422 84.0085)" stroke="white" stroke-opacity="0.21"/>
<line y1="-0.5" x2="243.921" y2="-0.5" transform="matrix(0.000525484 1 -1 0.000613488 345.199 84)" stroke="white" stroke-opacity="0.21"/>
<line y1="-0.5" x2="243.922" y2="-0.5" transform="matrix(0.00130826 0.999999 -1 0.000246417 379.977 84.0427)" stroke="white" stroke-opacity="0.21"/>
<line y1="-0.5" x2="243.922" y2="-0.5" transform="matrix(0.00133508 0.999999 -1 0.000241467 414.754 84.0334)" stroke="white" stroke-opacity="0.21"/>
<line y1="-0.5" x2="243.922" y2="-0.5" transform="matrix(0.00135225 0.999999 -1 0.000238401 449.532 84.0247)" stroke="white" stroke-opacity="0.21"/>
<line y1="-0.5" x2="243.922" y2="-0.5" transform="matrix(0.00129386 0.999999 -1 0.00024916 484.309 84.0171)" stroke="white" stroke-opacity="0.21"/>
<line y1="-0.5" x2="243.922" y2="-0.5" transform="matrix(0.00127332 0.999999 -1 0.000253179 519.087 84.0085)" stroke="white" stroke-opacity="0.21"/>
<line y1="-0.5" x2="243.922" y2="-0.5" transform="matrix(0.00127661 0.999999 -1 0.000252527 66.979 84.0703)" stroke="white" stroke-opacity="0.21"/>
<line y1="-0.5" x2="243.922" y2="-0.5" transform="matrix(0.00127661 0.999999 -1 0.000252527 101.757 84.0615)" stroke="white" stroke-opacity="0.21"/>
<line y1="-0.5" x2="243.922" y2="-0.5" transform="matrix(0.00130003 0.999999 -1 0.000247977 136.534 84.0515)" stroke="white" stroke-opacity="0.21"/>
<g clip-path="url(#clip0)">
<path d="M352.707 231.166H344.693V243.666H352.707V231.166Z" fill="#E9E245"/>
<path d="M363.554 228.221L357.887 234.114L365.9 242.446L371.567 236.553L363.554 228.221Z" fill="white"/>
<path d="M333.844 228.22L325.831 236.552L331.498 242.444L339.511 234.113L333.844 228.22Z" fill="white"/>
<path d="M412.814 306.166H348.7C346.487 306.166 344.693 308.032 344.693 310.333V376.999H416.821V310.333C416.821 308.032 415.027 306.166 412.814 306.166Z" fill="white"/>
<path d="M368.735 208.608L351.689 190.883L335.801 170.228C334.488 168.515 332.125 168.151 330.391 169.395L278.298 206.895C276.885 207.915 276.256 209.76 276.735 211.478L295.256 276.999H284.585V289.499H316.642V276.999H303.611L285.239 212.045L331.87 178.474L343.322 193.358L328.664 208.608C325.535 211.862 325.535 217.139 328.665 220.392C330.168 221.954 332.205 222.832 334.33 222.833H363.069C367.495 222.832 371.082 219.1 371.082 214.498C371.081 212.288 370.237 210.17 368.735 208.608Z" fill="#E9E245"/>
<path d="M448.878 247.833C446.665 247.833 444.871 249.698 444.871 251.999C444.871 254.3 446.665 256.166 448.878 256.166H496.964V247.833H448.878Z" fill="#E9E245"/>
<path d="M456.892 281.166C454.679 281.166 452.885 283.032 452.885 285.333C452.885 287.634 454.679 289.499 456.892 289.499H492.956V281.166H456.892Z" fill="#E9E245"/>
<path d="M455.634 168.666H444.871V185.333H460.899V176.604V168.666H455.634Z" fill="#E9E245"/>
<path d="M420.828 156.166H404.799V172.833H420.828V156.166Z" fill="white"/>
<path d="M461.837 154.562L460.619 160.333H464.906C467.119 160.333 468.914 162.198 468.914 164.499V173.249L474.043 174.42L477.493 158.145L461.837 154.562Z" fill="white"/>
<path d="M496.964 126.999H384.764C382.551 126.999 380.757 128.865 380.757 131.166V206.166C380.757 208.467 382.551 210.333 384.764 210.333H496.964C499.176 210.333 500.971 208.467 500.971 206.166V131.166C500.971 128.865 499.176 126.999 496.964 126.999ZM428.842 176.999C428.842 179.3 427.048 181.166 424.835 181.166H400.792C398.579 181.166 396.785 179.3 396.785 176.999V151.999C396.785 149.698 398.579 147.833 400.792 147.833H424.835C427.048 147.833 428.842 149.698 428.842 151.999V176.999ZM486.196 155.874L481.027 180.291C480.55 182.538 478.412 183.958 476.251 183.462L468.914 181.787V189.499C468.914 191.8 467.119 193.666 464.906 193.666H440.864C438.651 193.666 436.857 191.8 436.857 189.499V164.499C436.857 162.198 438.651 160.333 440.864 160.333H452.412L454.889 148.708C455.364 146.46 457.501 145.038 459.662 145.532C459.663 145.532 459.664 145.533 459.665 145.533L483.143 150.912C485.304 151.406 486.671 153.627 486.196 155.874Z" fill="#E9E245"/>
<path d="M460.899 260.333C456.473 260.333 452.885 264.063 452.885 268.666C452.885 273.268 456.473 276.999 460.899 276.999H500.971V260.333H460.899Z" fill="white"/>
<path d="M408.069 285.333V276.999H392.041C386.965 277.021 382.449 280.356 380.757 285.333C379.065 280.356 374.549 277.021 369.473 276.999H353.444V285.333H348.7V289.499H412.814V285.333H408.069Z" fill="white"/>
<path d="M260.543 293.666V310.333H272.564V376.999H288.593V310.333H336.678C336.678 303.429 342.06 297.833 348.7 297.833H412.814C419.453 297.833 424.835 303.429 424.835 310.333H472.921V376.999H488.949V310.333H500.971V293.666H260.543Z" fill="#E9E245"/>
</g>
<path d="M128.779 178.688L92.0756 125.742L107.653 114.067L142.044 143.172L126.255 100.124L141.868 88.4217L178.572 141.368L168.902 148.616L140.009 106.938L158.669 156.285L148.647 163.797L109.557 129.763L138.449 171.44L128.779 178.688ZM202.448 123.472L187.001 101.188L146.861 84.679L159.063 75.5333L185.716 87.3876L183.081 57.5318L195.072 48.5443L197.424 93.4851L212.822 115.696L202.448 123.472ZM82.0768 258.699L91.503 250.098C94.5328 253.132 97.5411 254.774 100.528 255.023C103.538 255.254 106.626 254.184 109.791 251.812C113.143 249.299 115.163 246.688 115.849 243.978C116.542 241.227 116.213 238.876 114.861 236.926C113.993 235.674 112.895 234.887 111.567 234.565C110.247 234.201 108.47 234.362 106.238 235.047C104.718 235.528 101.406 236.839 96.3015 238.982C89.7373 241.744 84.6122 242.932 80.9263 242.549C75.7419 242.007 71.6976 239.642 68.7933 235.452C66.9239 232.756 65.9182 229.686 65.776 226.244C65.6407 222.76 66.5422 219.358 68.4807 216.039C70.4426 212.703 73.4044 209.55 77.3663 206.58C83.8365 201.731 89.7107 199.541 94.9889 200.012C100.29 200.466 104.709 203.063 108.245 207.803L98.1617 216.074C95.8302 213.688 93.517 212.458 91.2223 212.385C88.9343 212.27 86.3251 213.311 83.3947 215.508C80.3706 217.774 78.4452 220.187 77.6185 222.746C77.0842 224.39 77.2927 225.899 78.2441 227.271C79.112 228.523 80.3705 229.208 82.0196 229.326C84.1169 229.474 88.1229 228.264 94.0378 225.696C99.9527 223.129 104.576 221.602 107.909 221.117C111.248 220.59 114.391 220.96 117.336 222.228C120.288 223.455 122.924 225.742 125.244 229.088C127.347 232.122 128.497 235.578 128.692 239.457C128.887 243.335 127.934 247.049 125.835 250.598C123.719 254.123 120.422 257.564 115.945 260.92C109.427 265.805 103.354 268.015 97.7247 267.552C92.0786 267.064 86.8626 264.113 82.0768 258.699ZM156.295 229.249L125.801 185.26L110.504 196.725L104.295 187.769L145.261 157.063L151.47 166.02L136.209 177.459L166.704 221.448L156.295 229.249ZM151.943 152.056L162.351 144.254L182.23 172.93C185.385 177.481 187.558 180.333 188.751 181.489C190.699 183.322 192.964 184.277 195.546 184.353C198.135 184.388 200.883 183.316 203.79 181.138C206.744 178.924 208.546 176.64 209.195 174.288C209.827 171.911 209.67 169.706 208.723 167.672C207.776 165.638 205.85 162.526 202.946 158.336L182.641 129.046L193.05 121.245L212.328 149.054C216.734 155.41 219.566 160.112 220.823 163.158C222.079 166.204 222.572 169.201 222.3 172.149C222.051 175.079 221.036 178.035 219.256 181.016C217.458 183.973 214.52 186.98 210.441 190.038C205.518 193.728 201.378 195.952 198.022 196.712C194.672 197.43 191.616 197.415 188.854 196.668C186.075 195.897 183.742 194.664 181.855 192.969C179.072 190.445 175.627 186.221 171.521 180.298L151.943 152.056ZM204.021 113.022L223.045 98.7627C227.335 95.5472 230.839 93.4331 233.557 92.4205C237.215 91.0687 240.932 90.7524 244.708 91.4713C248.484 92.1903 252.111 93.8255 255.59 96.377C259.052 98.9044 262.502 102.648 265.94 107.608C268.961 111.966 271.038 116.117 272.169 120.062C273.55 124.881 273.872 129.378 273.133 133.554C272.58 136.713 271.118 139.949 268.748 143.262C266.968 145.73 264.156 148.405 260.311 151.287L240.725 165.968L204.021 113.022ZM220.639 114.177L244.949 149.245L252.72 143.421C255.627 141.242 257.609 139.501 258.664 138.197C260.052 136.499 260.938 134.719 261.322 132.858C261.729 130.979 261.467 128.596 260.534 125.709C259.585 122.799 257.692 119.297 254.854 115.204C252.017 111.11 249.487 108.232 247.265 106.568C245.043 104.904 242.873 103.933 240.756 103.654C238.639 103.374 236.457 103.747 234.211 104.772C232.524 105.525 229.559 107.491 225.315 110.671L220.639 114.177ZM306.341 116.786L290.893 94.5028L250.754 77.9938L262.956 68.8481L289.609 80.7023L286.973 50.8466L298.964 41.859L301.317 86.7998L316.714 109.011L306.341 116.786ZM153.077 302.846L146.042 292.697L155.923 285.291L162.959 295.44L153.077 302.846ZM192.681 243.581L205.051 239.304C207.51 246.242 207.911 252.472 206.253 257.995C204.603 263.477 201.011 268.291 195.479 272.437C188.633 277.568 181.346 279.39 173.617 277.901C165.872 276.389 159.112 271.468 153.337 263.137C147.228 254.325 144.703 245.827 145.762 237.642C146.804 229.433 150.936 222.623 158.156 217.211C164.462 212.485 170.911 210.56 177.504 211.436C181.417 211.942 185.428 213.875 189.538 217.234L180.988 227.484C178.475 225.196 175.695 223.987 172.648 223.856C169.624 223.708 166.729 224.671 163.963 226.744C160.142 229.608 158.012 233.345 157.574 237.954C157.159 242.546 159.138 247.996 163.511 254.304C168.151 260.997 172.628 264.886 176.942 265.97C181.256 267.054 185.288 266.191 189.039 263.379C191.805 261.306 193.559 258.619 194.299 255.32C195.04 252.021 194.501 248.108 192.681 243.581ZM204.998 224.196C201.259 218.803 198.907 213.688 197.94 208.851C197.243 205.275 197.16 201.661 197.69 198.007C198.244 194.335 199.37 191.077 201.067 188.232C203.31 184.428 206.53 180.954 210.727 177.808C218.322 172.115 226.071 169.984 233.974 171.415C241.9 172.828 248.851 177.845 254.827 186.464C260.752 195.012 263.13 203.401 261.96 211.632C260.774 219.838 256.395 226.779 248.823 232.455C241.157 238.2 233.401 240.373 225.555 238.973C217.692 237.549 210.84 232.623 204.998 224.196ZM215.473 215.796C219.629 221.791 224.132 225.332 228.981 226.417C233.813 227.478 238.304 226.454 242.453 223.344C246.603 220.234 248.942 216.157 249.471 211.114C250.007 206.029 248.147 200.416 243.891 194.277C239.685 188.209 235.246 184.658 230.574 183.622C225.926 182.57 221.456 183.651 217.166 186.867C212.876 190.082 210.47 194.191 209.948 199.192C209.408 204.17 211.25 209.705 215.473 215.796ZM281.146 206.856L244.442 153.91L260.02 142.234L294.41 171.339L278.622 128.291L294.235 116.589L330.938 169.535L321.268 176.783L292.376 135.105L311.035 184.453L301.014 191.964L261.924 157.93L290.816 199.608L281.146 206.856Z" fill="white"/>
<defs>
<clipPath id="clip0">
<rect width="240.428" height="250" fill="white" transform="translate(260.543 126.999)"/>
</clipPath>
</defs>
</svg>
