<svg width="1071" height="244" viewBox="0 0 1071 244" fill="none" xmlns="http://www.w3.org/2000/svg">
<line x1="521" y1="219.48" x2="1071" y2="219.48" stroke="white" stroke-opacity="0.21"/>
<line x1="521" y1="195.002" x2="1071" y2="195.002" stroke="white" stroke-opacity="0.21"/>
<line x1="521" y1="170.524" x2="1071" y2="170.524" stroke="white" stroke-opacity="0.21"/>
<line x1="521" y1="72.6111" x2="1071" y2="72.6111" stroke="white" stroke-opacity="0.21"/>
<line x1="521" y1="48.1333" x2="1071" y2="48.1333" stroke="white" stroke-opacity="0.21"/>
<line x1="521" y1="23.6548" x2="1071" y2="23.6548" stroke="white" stroke-opacity="0.21"/>
<line x1="521" y1="146.046" x2="1071" y2="146.046" stroke="white" stroke-opacity="0.21"/>
<line x1="521" y1="121.568" x2="1071" y2="121.568" stroke="white" stroke-opacity="0.21"/>
<line x1="521" y1="97.0898" x2="1071" y2="97.0898" stroke="white" stroke-opacity="0.21"/>
<line y1="-0.5" x2="243.922" y2="-0.5" transform="matrix(0.00127661 0.999999 -1 0.000252527 553.201 0.0786133)" stroke="white" stroke-opacity="0.21"/>
<line y1="-0.5" x2="243.922" y2="-0.5" transform="matrix(0.00130826 0.999999 -1 0.000246417 692.311 0.0427246)" stroke="white" stroke-opacity="0.21"/>
<line y1="-0.5" x2="243.922" y2="-0.5" transform="matrix(0.00133508 0.999999 -1 0.000241467 727.089 0.0334473)" stroke="white" stroke-opacity="0.21"/>
<line y1="-0.5" x2="243.922" y2="-0.5" transform="matrix(0.00135225 0.999999 -1 0.000238401 761.867 0.0246582)" stroke="white" stroke-opacity="0.21"/>
<line y1="-0.5" x2="243.922" y2="-0.5" transform="matrix(0.00129386 0.999999 -1 0.00024916 796.644 0.0170898)" stroke="white" stroke-opacity="0.21"/>
<line y1="-0.5" x2="243.922" y2="-0.5" transform="matrix(0.00127332 0.999999 -1 0.000253179 831.422 0.00854492)" stroke="white" stroke-opacity="0.21"/>
<line y1="-0.5" x2="243.921" y2="-0.5" transform="matrix(0.000525484 1 -1 0.000613488 866.199 0)" stroke="white" stroke-opacity="0.21"/>
<line y1="-0.5" x2="243.922" y2="-0.5" transform="matrix(0.00130826 0.999999 -1 0.000246417 900.977 0.0427246)" stroke="white" stroke-opacity="0.21"/>
<line y1="-0.5" x2="243.922" y2="-0.5" transform="matrix(0.00133508 0.999999 -1 0.000241467 935.754 0.0334473)" stroke="white" stroke-opacity="0.21"/>
<line y1="-0.5" x2="243.922" y2="-0.5" transform="matrix(0.00135225 0.999999 -1 0.000238401 970.532 0.0246582)" stroke="white" stroke-opacity="0.21"/>
<line y1="-0.5" x2="243.922" y2="-0.5" transform="matrix(0.00129386 0.999999 -1 0.00024916 1005.31 0.0170898)" stroke="white" stroke-opacity="0.21"/>
<line y1="-0.5" x2="243.922" y2="-0.5" transform="matrix(0.00127332 0.999999 -1 0.000253179 1040.09 0.00854492)" stroke="white" stroke-opacity="0.21"/>
<line y1="-0.5" x2="243.922" y2="-0.5" transform="matrix(0.00127661 0.999999 -1 0.000252527 587.979 0.0703125)" stroke="white" stroke-opacity="0.21"/>
<line y1="-0.5" x2="243.922" y2="-0.5" transform="matrix(0.00127661 0.999999 -1 0.000252527 622.757 0.0615234)" stroke="white" stroke-opacity="0.21"/>
<line y1="-0.5" x2="243.922" y2="-0.5" transform="matrix(0.00130003 0.999999 -1 0.000247977 657.534 0.0515137)" stroke="white" stroke-opacity="0.21"/>
<line y1="219.48" x2="550" y2="219.48" stroke="white" stroke-opacity="0.21"/>
<line y1="195.002" x2="550" y2="195.002" stroke="white" stroke-opacity="0.21"/>
<line y1="170.524" x2="550" y2="170.524" stroke="white" stroke-opacity="0.21"/>
<line y1="72.6111" x2="550" y2="72.6111" stroke="white" stroke-opacity="0.21"/>
<line y1="48.1333" x2="550" y2="48.1333" stroke="white" stroke-opacity="0.21"/>
<line y1="23.6548" x2="550" y2="23.6548" stroke="white" stroke-opacity="0.21"/>
<line y1="146.046" x2="550" y2="146.046" stroke="white" stroke-opacity="0.21"/>
<line y1="121.568" x2="550" y2="121.568" stroke="white" stroke-opacity="0.21"/>
<line y1="97.0898" x2="550" y2="97.0898" stroke="white" stroke-opacity="0.21"/>
<line y1="-0.5" x2="243.922" y2="-0.5" transform="matrix(0.00127661 0.999999 -1 0.000252527 32.2014 0.0786133)" stroke="white" stroke-opacity="0.21"/>
<line y1="-0.5" x2="243.922" y2="-0.5" transform="matrix(0.00130826 0.999999 -1 0.000246417 171.311 0.0427246)" stroke="white" stroke-opacity="0.21"/>
<line y1="-0.5" x2="243.922" y2="-0.5" transform="matrix(0.00133508 0.999999 -1 0.000241467 206.089 0.0334473)" stroke="white" stroke-opacity="0.21"/>
<line y1="-0.5" x2="243.922" y2="-0.5" transform="matrix(0.00135225 0.999999 -1 0.000238401 240.867 0.0246582)" stroke="white" stroke-opacity="0.21"/>
<line y1="-0.5" x2="243.922" y2="-0.5" transform="matrix(0.00129386 0.999999 -1 0.00024916 275.644 0.0170898)" stroke="white" stroke-opacity="0.21"/>
<line y1="-0.5" x2="243.922" y2="-0.5" transform="matrix(0.00127332 0.999999 -1 0.000253179 310.422 0.00854492)" stroke="white" stroke-opacity="0.21"/>
<line y1="-0.5" x2="243.921" y2="-0.5" transform="matrix(0.000525484 1 -1 0.000613488 345.199 0)" stroke="white" stroke-opacity="0.21"/>
<line y1="-0.5" x2="243.922" y2="-0.5" transform="matrix(0.00130826 0.999999 -1 0.000246417 379.977 0.0427246)" stroke="white" stroke-opacity="0.21"/>
<line y1="-0.5" x2="243.922" y2="-0.5" transform="matrix(0.00133508 0.999999 -1 0.000241467 414.754 0.0334473)" stroke="white" stroke-opacity="0.21"/>
<line y1="-0.5" x2="243.922" y2="-0.5" transform="matrix(0.00135225 0.999999 -1 0.000238401 449.532 0.0246582)" stroke="white" stroke-opacity="0.21"/>
<line y1="-0.5" x2="243.922" y2="-0.5" transform="matrix(0.00129386 0.999999 -1 0.00024916 484.309 0.0170898)" stroke="white" stroke-opacity="0.21"/>
<line y1="-0.5" x2="243.922" y2="-0.5" transform="matrix(0.00127332 0.999999 -1 0.000253179 519.087 0.00854492)" stroke="white" stroke-opacity="0.21"/>
<line y1="-0.5" x2="243.922" y2="-0.5" transform="matrix(0.00127661 0.999999 -1 0.000252527 66.979 0.0703125)" stroke="white" stroke-opacity="0.21"/>
<line y1="-0.5" x2="243.922" y2="-0.5" transform="matrix(0.00127661 0.999999 -1 0.000252527 101.757 0.0615234)" stroke="white" stroke-opacity="0.21"/>
<line y1="-0.5" x2="243.922" y2="-0.5" transform="matrix(0.00130003 0.999999 -1 0.000247977 136.534 0.0515137)" stroke="white" stroke-opacity="0.21"/>
</svg>
