<svg width="963" height="317" viewBox="0 0 963 317" fill="none" xmlns="http://www.w3.org/2000/svg">
<line x1="378" y1="302.297" x2="963" y2="302.297" stroke="#C0C0C0" stroke-opacity="0.47"/>
<line x1="378" y1="282.259" x2="963" y2="282.259" stroke="#C0C0C0" stroke-opacity="0.47"/>
<line x1="378" y1="262.221" x2="963" y2="262.221" stroke="#C0C0C0" stroke-opacity="0.47"/>
<line x1="378" y1="242.183" x2="963" y2="242.183" stroke="#C0C0C0" stroke-opacity="0.47"/>
<line x1="378" y1="222.145" x2="963" y2="222.145" stroke="#C0C0C0" stroke-opacity="0.47"/>
<line x1="378" y1="202.107" x2="963" y2="202.107" stroke="#C0C0C0" stroke-opacity="0.47"/>
<line x1="378" y1="121.955" x2="963" y2="121.955" stroke="#C0C0C0" stroke-opacity="0.47"/>
<line x1="378" y1="101.917" x2="963" y2="101.917" stroke="#C0C0C0" stroke-opacity="0.47"/>
<line x1="378" y1="81.8787" x2="963" y2="81.8787" stroke="#C0C0C0" stroke-opacity="0.47"/>
<line x1="378" y1="61.8406" x2="963" y2="61.8406" stroke="#C0C0C0" stroke-opacity="0.47"/>
<line x1="378" y1="41.8025" x2="963" y2="41.8025" stroke="#C0C0C0" stroke-opacity="0.47"/>
<line x1="378" y1="21.7646" x2="963" y2="21.7646" stroke="#C0C0C0" stroke-opacity="0.47"/>
<line x1="378" y1="182.069" x2="963" y2="182.069" stroke="#C0C0C0" stroke-opacity="0.47"/>
<line x1="378" y1="162.031" x2="963" y2="162.031" stroke="#C0C0C0" stroke-opacity="0.47"/>
<line x1="378" y1="141.993" x2="963" y2="141.993" stroke="#C0C0C0" stroke-opacity="0.47"/>
<line y1="-0.5" x2="316.898" y2="-0.5" transform="matrix(0.00105195 0.999999 -1 0.000306458 412.251 0.102051)" stroke="#C0C0C0" stroke-opacity="0.47"/>
<line y1="-0.5" x2="316.898" y2="-0.5" transform="matrix(0.00105195 0.999999 -1 0.000306458 560.213 0.0566406)" stroke="#C0C0C0" stroke-opacity="0.47"/>
<line y1="-0.5" x2="316.898" y2="-0.5" transform="matrix(0.00104247 0.999999 -1 0.000309245 597.204 0.0458984)" stroke="#C0C0C0" stroke-opacity="0.47"/>
<line y1="-0.5" x2="316.898" y2="-0.5" transform="matrix(0.00107357 0.999999 -1 0.000300287 634.194 0.0332031)" stroke="#C0C0C0" stroke-opacity="0.47"/>
<line y1="-0.5" x2="316.898" y2="-0.5" transform="matrix(0.000986592 0.999999 -1 0.00032676 671.185 0.0241699)" stroke="#C0C0C0" stroke-opacity="0.47"/>
<line y1="-0.5" x2="316.898" y2="-0.5" transform="matrix(0.000975325 0.999999 -1 0.000330534 708.176 0.0119629)" stroke="#C0C0C0" stroke-opacity="0.47"/>
<line y1="-0.5" x2="316.898" y2="-0.5" transform="matrix(0.000362451 1 -1 0.00088944 745.166 0)" stroke="#C0C0C0" stroke-opacity="0.47"/>
<line y1="-0.5" x2="316.898" y2="-0.5" transform="matrix(0.00105195 0.999999 -1 0.000306458 782.157 0.0566406)" stroke="#C0C0C0" stroke-opacity="0.47"/>
<line y1="-0.5" x2="316.898" y2="-0.5" transform="matrix(0.00104247 0.999999 -1 0.000309245 819.148 0.0458984)" stroke="#C0C0C0" stroke-opacity="0.47"/>
<line y1="-0.5" x2="316.898" y2="-0.5" transform="matrix(0.00107357 0.999999 -1 0.000300287 856.138 0.0332031)" stroke="#C0C0C0" stroke-opacity="0.47"/>
<line y1="-0.5" x2="316.898" y2="-0.5" transform="matrix(0.000986592 0.999999 -1 0.00032676 893.129 0.0241699)" stroke="#C0C0C0" stroke-opacity="0.47"/>
<line y1="-0.5" x2="316.898" y2="-0.5" transform="matrix(0.000975325 0.999999 -1 0.000330534 930.12 0.0119629)" stroke="#C0C0C0" stroke-opacity="0.47"/>
<line y1="-0.5" x2="316.898" y2="-0.5" transform="matrix(0.00105195 0.999999 -1 0.000306458 449.241 0.0905762)" stroke="#C0C0C0" stroke-opacity="0.47"/>
<line y1="-0.5" x2="316.898" y2="-0.5" transform="matrix(0.00105195 0.999999 -1 0.000306458 486.232 0.0791016)" stroke="#C0C0C0" stroke-opacity="0.47"/>
<line y1="-0.5" x2="316.898" y2="-0.5" transform="matrix(0.00105195 0.999999 -1 0.000306458 523.222 0.067627)" stroke="#C0C0C0" stroke-opacity="0.47"/>
<line y1="302.5" x2="411" y2="302.5" stroke="#C0C0C0" stroke-opacity="0.47"/>
<line y1="282.5" x2="411" y2="282.5" stroke="#C0C0C0" stroke-opacity="0.47"/>
<line y1="262.5" x2="411" y2="262.5" stroke="#C0C0C0" stroke-opacity="0.47"/>
<line y1="242.5" x2="411" y2="242.5" stroke="#C0C0C0" stroke-opacity="0.47"/>
<line y1="222.5" x2="411" y2="222.5" stroke="#C0C0C0" stroke-opacity="0.47"/>
<line y1="202.5" x2="411" y2="202.5" stroke="#C0C0C0" stroke-opacity="0.47"/>
<line y1="121.5" x2="411" y2="121.5" stroke="#C0C0C0" stroke-opacity="0.47"/>
<line y1="101.5" x2="411" y2="101.5" stroke="#C0C0C0" stroke-opacity="0.47"/>
<line y1="81.5" x2="411" y2="81.5" stroke="#C0C0C0" stroke-opacity="0.47"/>
<line y1="61.5" x2="411" y2="61.5" stroke="#C0C0C0" stroke-opacity="0.47"/>
<line y1="41.5" x2="411" y2="41.5" stroke="#C0C0C0" stroke-opacity="0.47"/>
<line y1="21.5" x2="411" y2="21.5" stroke="#C0C0C0" stroke-opacity="0.47"/>
<line y1="182.5" x2="411" y2="182.5" stroke="#C0C0C0" stroke-opacity="0.47"/>
<line y1="162.5" x2="411" y2="162.5" stroke="#C0C0C0" stroke-opacity="0.47"/>
<line y1="141.5" x2="411" y2="141.5" stroke="#C0C0C0" stroke-opacity="0.47"/>
<line y1="-0.5" x2="316.898" y2="-0.5" transform="matrix(0.00105195 0.999999 -1 0.000306458 8.21307 0.0566406)" stroke="#C0C0C0" stroke-opacity="0.47"/>
<line y1="-0.5" x2="316.898" y2="-0.5" transform="matrix(0.00104247 0.999999 -1 0.000309245 45.2037 0.0458984)" stroke="#C0C0C0" stroke-opacity="0.47"/>
<line y1="-0.5" x2="316.898" y2="-0.5" transform="matrix(0.00107357 0.999999 -1 0.000300287 82.1944 0.0332031)" stroke="#C0C0C0" stroke-opacity="0.47"/>
<line y1="-0.5" x2="316.898" y2="-0.5" transform="matrix(0.000986592 0.999999 -1 0.00032676 119.185 0.0241699)" stroke="#C0C0C0" stroke-opacity="0.47"/>
<line y1="-0.5" x2="316.898" y2="-0.5" transform="matrix(0.000975325 0.999999 -1 0.000330534 156.176 0.0119629)" stroke="#C0C0C0" stroke-opacity="0.47"/>
<line y1="-0.5" x2="316.898" y2="-0.5" transform="matrix(0.000362451 1 -1 0.00088944 193.166 0)" stroke="#C0C0C0" stroke-opacity="0.47"/>
<line y1="-0.5" x2="316.898" y2="-0.5" transform="matrix(0.00105195 0.999999 -1 0.000306458 230.157 0.0566406)" stroke="#C0C0C0" stroke-opacity="0.47"/>
<line y1="-0.5" x2="316.898" y2="-0.5" transform="matrix(0.00104247 0.999999 -1 0.000309245 267.148 0.0458984)" stroke="#C0C0C0" stroke-opacity="0.47"/>
<line y1="-0.5" x2="316.898" y2="-0.5" transform="matrix(0.00107357 0.999999 -1 0.000300287 304.138 0.0332031)" stroke="#C0C0C0" stroke-opacity="0.47"/>
<line y1="-0.5" x2="316.898" y2="-0.5" transform="matrix(0.000986592 0.999999 -1 0.00032676 341.129 0.0241699)" stroke="#C0C0C0" stroke-opacity="0.47"/>
<line y1="-0.5" x2="316.898" y2="-0.5" transform="matrix(0.000975325 0.999999 -1 0.000330534 378.12 0.0119629)" stroke="#C0C0C0" stroke-opacity="0.47"/>
</svg>
