<svg width="208" height="316" viewBox="0 0 208 316" fill="none" xmlns="http://www.w3.org/2000/svg">
<path d="M74.0397 22.2873V4.34827H55.8037V22.2873H37.5677V40.2264H55.8037V58.1628H74.0397V40.2264H92.2757V22.2873H74.0397Z" fill="black"/>
<path d="M131.589 77.9697C144.17 77.9697 154.376 67.9212 154.376 55.5479C154.376 52.6043 153.787 49.6895 152.642 46.9699C151.497 44.2504 149.818 41.7794 147.702 39.698C145.586 37.6167 143.074 35.9658 140.309 34.8395C137.544 33.7133 134.581 33.1338 131.589 33.1342C128.597 33.1338 125.633 33.7133 122.869 34.8395C120.104 35.9658 117.592 37.6167 115.476 39.698C113.36 41.7794 111.681 44.2504 110.536 46.9699C109.391 49.6895 108.802 52.6043 108.802 55.5479C108.802 67.9185 119.008 77.9697 131.589 77.9697Z" fill="black"/>
<path d="M95.8955 170.715V150.823L75.616 156.375C74.0909 156.974 72.4637 157.283 70.8213 157.283C68.4648 157.281 66.1532 156.649 64.1338 155.455C62.1143 154.26 60.4631 152.547 59.3569 150.501C58.2506 148.454 57.7308 146.15 57.8532 143.835C57.9757 141.52 58.7356 139.281 60.0519 137.358L92.5816 93.4794C96.114 88.7225 101.045 83.42 111.446 83.42H150.773C161.168 83.42 166.105 88.7225 169.632 93.4794L202.161 137.358C203.476 139.281 204.235 141.519 204.358 143.833C204.48 146.147 203.96 148.451 202.855 150.497C201.749 152.543 200.099 154.256 198.081 155.451C196.063 156.646 193.753 157.28 191.397 157.283C189.755 157.283 188.128 156.975 186.603 156.375L166.318 150.823V170.715H95.8982H95.8955ZM131.108 156.818L157.387 148.264L156.794 148.103C138.665 142.854 145.724 119.29 163.851 124.552L166.329 125.372V98.7603L131.108 110.08L95.89 98.7603V125.372L98.3542 124.552C116.495 119.29 123.554 142.854 105.414 148.103L104.832 148.264L131.108 156.818Z" fill="black"/>
<path d="M23.4807 304.562H17.6673C14.5837 304.562 11.6264 303.357 9.44594 301.213C7.26549 299.068 6.04053 296.158 6.04053 293.125V173.031C6.04053 169.998 7.26549 167.089 9.44594 164.944C11.6264 162.799 14.5837 161.594 17.6673 161.594H23.4807C26.5644 161.594 29.5217 162.799 31.7021 164.944C33.8826 167.089 35.1075 169.998 35.1075 173.031V293.125C35.1075 296.158 33.8826 299.068 31.7021 301.213C29.5217 303.357 26.5644 304.562 23.4807 304.562Z" fill="black"/>
<path d="M87.4282 195.906C87.4282 192.873 86.2033 189.964 84.0228 187.819C81.8424 185.674 78.8851 184.469 75.8014 184.469H52.5478C49.4642 184.469 46.5069 185.674 44.3264 187.819C42.146 189.964 40.921 192.873 40.921 195.906V205.914C40.921 206.293 41.0741 206.657 41.3467 206.925C41.6193 207.193 41.9889 207.344 42.3744 207.344H85.9749C86.3603 207.344 86.73 207.193 87.0026 206.925C87.2751 206.657 87.4282 206.293 87.4282 205.914V195.906Z" fill="black"/>
<path d="M40.921 293.125C40.921 296.158 42.146 299.068 44.3264 301.213C46.5069 303.357 49.4642 304.562 52.5478 304.562H75.8014C78.8851 304.562 81.8424 303.357 84.0228 301.213C86.2033 299.068 87.4282 296.158 87.4282 293.125V282.402C87.4282 282.213 87.3517 282.031 87.2154 281.897C87.0791 281.763 86.8943 281.688 86.7016 281.688H41.6477C41.455 281.688 41.2701 281.763 41.1339 281.897C40.9976 282.031 40.921 282.213 40.921 282.402V293.125Z" fill="black"/>
<path d="M86.7016 218.781H41.6477C41.2464 218.781 40.921 219.101 40.921 219.496V269.535C40.921 269.93 41.2464 270.25 41.6477 270.25H86.7016C87.1029 270.25 87.4282 269.93 87.4282 269.535V219.496C87.4282 219.101 87.1029 218.781 86.7016 218.781Z" fill="black"/>
<path d="M116.495 304.562H104.868C101.785 304.562 98.8274 303.357 96.647 301.213C94.4665 299.068 93.2416 296.158 93.2416 293.125V155.875C93.2416 152.842 94.4665 149.932 96.647 147.787C98.8274 145.643 101.785 144.438 104.868 144.438H116.495C119.579 144.438 122.536 145.643 124.717 147.787C126.897 149.932 128.122 152.842 128.122 155.875V293.125C128.122 296.158 126.897 299.068 124.717 301.213C122.536 303.357 119.579 304.562 116.495 304.562Z" fill="black"/>
<path d="M180.402 292.213L168.692 170.69C168.154 165.096 162.537 161.04 156.146 161.644L144.574 162.716C138.183 163.313 133.437 168.331 133.975 173.925L145.686 295.448C146.223 301.042 151.84 305.099 158.232 304.495L169.804 303.422C176.195 302.825 180.94 297.807 180.402 292.213Z" fill="black"/>
</svg>
