<svg width="478" height="376" viewBox="0 0 478 376" fill="none" xmlns="http://www.w3.org/2000/svg">
<g clip-path="url(#clip0)">
<path d="M329.707 229.962H321.693V242.462H329.707V229.962Z" fill="black"/>
<path d="M340.554 227.017L334.887 232.909L342.9 241.241L348.567 235.349L340.554 227.017Z" fill="black"/>
<path d="M310.844 227.016L302.831 235.348L308.498 241.24L316.511 232.908L310.844 227.016Z" fill="black"/>
<path d="M389.814 304.962H325.7C323.487 304.962 321.693 306.828 321.693 309.129V375.795H393.821V309.129C393.821 306.828 392.027 304.962 389.814 304.962Z" fill="black"/>
<path d="M345.735 207.403L328.689 189.678L312.801 169.024C311.488 167.311 309.125 166.947 307.391 168.191L255.298 205.691C253.885 206.711 253.256 208.556 253.735 210.274L272.256 275.795H261.585V288.295H293.642V275.795H280.611L262.239 210.841L308.87 177.27L320.322 192.153L305.664 207.403C302.535 210.658 302.535 215.935 305.665 219.188C307.168 220.75 309.205 221.628 311.33 221.628H340.069C344.495 221.627 348.082 217.896 348.082 213.294C348.081 211.084 347.237 208.966 345.735 207.403Z" fill="black"/>
<path d="M425.878 246.628C423.665 246.628 421.871 248.494 421.871 250.795C421.871 253.096 423.665 254.962 425.878 254.962H473.964V246.628H425.878Z" fill="black"/>
<path d="M433.892 279.962C431.679 279.962 429.885 281.828 429.885 284.129C429.885 286.43 431.679 288.295 433.892 288.295H469.956V279.962H433.892Z" fill="black"/>
<path d="M432.634 167.462H421.871V184.129H437.899V175.399V167.462H432.634Z" fill="black"/>
<path d="M397.828 154.962H381.799V171.629H397.828V154.962Z" fill="black"/>
<path d="M438.837 153.358L437.619 159.129H441.906C444.119 159.129 445.914 160.994 445.914 163.295V172.045L451.043 173.216L454.493 156.941L438.837 153.358Z" fill="black"/>
<path d="M473.964 125.795H361.764C359.551 125.795 357.757 127.661 357.757 129.962V204.962C357.757 207.263 359.551 209.129 361.764 209.129H473.964C476.176 209.129 477.971 207.263 477.971 204.962V129.962C477.971 127.661 476.176 125.795 473.964 125.795ZM405.842 175.795C405.842 178.096 404.048 179.962 401.835 179.962H377.792C375.579 179.962 373.785 178.096 373.785 175.795V150.795C373.785 148.494 375.579 146.629 377.792 146.629H401.835C404.048 146.629 405.842 148.494 405.842 150.795V175.795ZM463.196 154.67L458.027 179.087C457.55 181.334 455.412 182.754 453.251 182.258L445.914 180.583V188.295C445.914 190.596 444.119 192.462 441.906 192.462H417.864C415.651 192.462 413.857 190.596 413.857 188.295V163.295C413.857 160.994 415.651 159.129 417.864 159.129H429.412L431.889 147.504C432.364 145.256 434.501 143.834 436.662 144.328C436.663 144.328 436.664 144.329 436.665 144.329L460.143 149.708C462.304 150.202 463.671 152.423 463.196 154.67Z" fill="black"/>
<path d="M437.899 259.128C433.473 259.128 429.885 262.859 429.885 267.462C429.885 272.064 433.473 275.795 437.899 275.795H477.971V259.128H437.899Z" fill="black"/>
<path d="M385.069 284.129V275.795H369.041C363.965 275.817 359.449 279.152 357.757 284.129C356.065 279.152 351.549 275.817 346.473 275.795H330.444V284.129H325.7V288.295H389.814V284.129H385.069Z" fill="black"/>
<path d="M237.543 292.462V309.129H249.564V375.795H265.593V309.129H313.678C313.678 302.225 319.06 296.629 325.7 296.629H389.814C396.453 296.629 401.835 302.225 401.835 309.129H449.921V375.795H465.949V309.129H477.971V292.462H237.543Z" fill="black"/>
</g>
<path d="M106.775 185.481L71.8827 131.832L83.6213 123.034L124.502 144.433L117.613 97.5564L129.352 88.758L166.837 140.464L152.938 150.882L137.277 129.238L141.559 159.41L131.477 166.967L105.63 153.52L119.954 175.603L106.775 185.481ZM182.427 48.9769L185.438 90.8922L201.692 114.339L187.289 125.135L171.547 102.427L132.879 86.1139L148.939 74.0768L169.921 83.1901L167.447 60.2044L182.427 48.9769ZM95.9257 265.923C89.4922 270.745 83.5009 273.1 77.9516 272.988C72.4023 272.876 67.5247 270.313 63.3186 265.298L75.2572 253.315C76.6522 255.117 78.504 256.051 80.8128 256.119C83.1354 256.102 85.4969 255.194 87.8975 253.394C92.3145 250.084 93.7026 247.245 92.0618 244.878C91.3097 243.793 90.0874 243.398 88.3947 243.693C86.7159 243.902 84.2449 244.705 80.9817 246.102C74.0028 249.085 68.2665 250.387 63.7727 250.009C59.2789 249.63 55.5007 247.179 52.438 242.656C50.1274 239.218 48.9235 235.587 48.8263 231.763C48.743 227.854 49.742 224.033 51.8234 220.3C53.9186 216.482 57.0547 213.007 61.2317 209.877C66.3688 206.026 71.5167 204.191 76.6754 204.371C81.8821 204.514 86.315 206.699 89.9741 210.925L78.9095 222.59C77.6781 221.34 76.1307 220.739 74.2671 220.787C72.4173 220.75 70.6282 221.379 68.8998 222.675C67.2675 223.898 66.1865 225.233 65.6568 226.679C65.141 228.04 65.2761 229.287 66.0624 230.421C66.7802 231.457 67.8927 232.009 69.3999 232.078C70.9208 232.062 73.2889 231.374 76.5041 230.013C81.1247 228.049 85.1996 226.718 88.729 226.021C92.2722 225.238 95.3996 225.329 98.1113 226.294C100.871 227.223 103.362 229.29 105.584 232.495C107.942 235.898 109.115 239.589 109.103 243.57C109.104 247.466 107.985 251.377 105.745 255.303C103.52 259.144 100.247 262.684 95.9257 265.923ZM128.018 160.943L134.851 175.378L119.872 186.605L147.355 226.251L132.952 237.046L105.469 197.401L89.4811 209.384L80.5593 196.514L128.018 160.943ZM163.114 134.637L177.229 124.058L197.319 152.722C200.717 157.519 202.713 162.504 203.309 167.677C203.904 172.851 203.143 177.805 201.026 182.539C198.909 187.273 195.498 191.403 190.793 194.93C183.111 200.687 175.814 203.159 168.903 202.345C162.039 201.495 155.924 197.199 150.557 189.457L129.842 159.575L144.245 148.78L164.448 177.922C167.217 181.916 170.087 184.111 173.06 184.505C176.081 184.863 179.008 183.981 181.84 181.858C184.817 179.627 186.472 176.963 186.806 173.865C187.187 170.732 185.867 167.038 182.845 162.784L163.114 134.637ZM222.234 170.127L185.829 117.612L203.833 104.117C214.059 96.4526 223.303 92.8959 231.565 93.4474C239.84 93.9136 246.969 98.4614 252.951 107.091C255.583 110.888 257.338 114.892 258.216 119.105C259.093 123.318 259.128 127.525 258.321 131.728C257.513 135.93 255.89 139.956 253.452 143.806C251.028 147.571 247.848 150.929 243.911 153.88L222.234 170.127ZM227.613 146.314L233.878 141.618C238.439 138.199 241.103 134.517 241.869 130.571C242.683 126.588 241.638 122.501 238.732 118.31C235.485 113.626 231.885 111.116 227.932 110.782C223.98 110.447 219.411 112.223 214.225 116.11L209.256 119.834L227.613 146.314ZM280.588 46.5878L283.599 88.503L299.853 111.95L285.45 122.746L269.708 100.038L231.04 83.7247L247.1 71.6876L268.082 80.8009L265.608 57.8152L280.588 46.5878ZM139.429 304.613C136.644 306.7 133.855 307.517 131.06 307.064C128.279 306.526 126.017 304.999 124.274 302.485C122.496 299.92 121.819 297.206 122.241 294.342C122.677 291.393 124.287 288.875 127.072 286.788C129.856 284.7 132.663 283.908 135.492 284.41C138.286 284.863 140.572 286.372 142.35 288.936C144.093 291.451 144.747 294.183 144.311 297.132C143.841 300.032 142.213 302.526 139.429 304.613ZM190.874 248.969C191.161 254.224 190.068 259.277 187.594 264.129C185.086 268.931 181.48 273.095 176.775 276.621C171.014 280.94 165.351 283.611 159.786 284.634C154.269 285.622 149.081 284.978 144.22 282.702C139.359 280.425 135.065 276.6 131.339 271.225C127.408 265.554 125.166 259.742 124.613 253.787C124.108 247.796 125.189 242.041 127.855 236.521C130.487 230.951 134.636 226.043 140.301 221.797C145.294 218.054 150.128 215.818 154.801 215.087C159.441 214.308 164.14 214.982 168.898 217.11L163.51 233.175C161.333 232.034 158.925 231.666 156.287 232.07C153.615 232.424 151.126 233.465 148.821 235.193C144.562 238.31 142.214 242.131 141.775 246.656C141.351 251.095 142.66 255.509 145.702 259.898C148.608 264.089 151.937 266.577 155.69 267.36C159.458 268.058 163.502 266.788 167.823 263.549C172.816 259.807 175.022 254.781 174.442 248.472L190.874 248.969ZM225.16 240.243C219.673 244.431 214.219 246.983 208.798 247.898C203.378 248.814 198.261 248.116 193.448 245.804C188.635 243.492 184.331 239.599 180.537 234.125C176.64 228.504 174.391 222.734 173.79 216.815C173.189 210.897 174.15 205.231 176.672 199.819C179.194 194.407 183.216 189.631 188.737 185.493C193.778 181.714 198.924 179.507 204.172 178.869C209.469 178.196 214.5 179.034 219.265 181.382C224.044 183.645 228.245 187.389 231.869 192.616C235.697 198.139 237.96 203.824 238.657 209.671C239.402 215.481 238.627 221.045 236.33 226.363C234.034 231.681 230.311 236.308 225.16 240.243ZM215.827 227.569C219.523 224.798 221.529 221.272 221.844 216.99C222.124 212.658 220.709 208.249 217.598 203.762C214.795 199.718 211.524 197.262 207.785 196.393C204.093 195.489 200.543 196.314 197.134 198.869C194.638 200.74 192.898 203.018 191.914 205.704C190.896 208.34 190.628 211.163 191.11 214.174C191.606 217.099 192.845 219.992 194.828 222.852C197.768 227.093 201.09 229.623 204.795 230.442C208.501 231.262 212.178 230.304 215.827 227.569ZM257.208 215.098L222.315 161.449L234.054 152.651L274.934 174.05L268.046 127.173L279.784 118.375L317.27 170.081L303.371 180.498L287.71 158.855L291.992 189.027L281.91 196.584L256.063 183.137L270.387 205.22L257.208 215.098Z" fill="black"/>
<defs>
<clipPath id="clip0">
<rect width="240.428" height="250" fill="white" transform="translate(237.543 125.795)"/>
</clipPath>
</defs>
</svg>
