<svg width="46" height="43" viewBox="0 0 46 43" fill="none" xmlns="http://www.w3.org/2000/svg">
<path d="M22.4413 15.7946C19.4737 15.7946 17.0787 18.061 17.0787 20.8693C17.0787 23.6776 19.4737 25.944 22.4413 25.944C25.4089 25.944 27.8039 23.6776 27.8039 20.8693C27.8039 18.061 25.4089 15.7946 22.4413 15.7946ZM22.4413 24.1675C20.5222 24.1675 18.956 22.6854 18.956 20.8693C18.956 19.0532 20.5222 17.5711 22.4413 17.5711C24.3604 17.5711 25.9266 19.0532 25.9266 20.8693C25.9266 22.6854 24.3604 24.1675 22.4413 24.1675ZM28.0235 14.4041C27.3306 14.4041 26.7711 14.9336 26.7711 15.5893C26.7711 16.2449 27.3306 16.7744 28.0235 16.7744C28.7164 16.7744 29.2759 16.2474 29.2759 15.5893C29.2761 15.4336 29.2439 15.2794 29.181 15.1355C29.1181 14.9916 29.0259 14.8609 28.9095 14.7508C28.7932 14.6407 28.6551 14.5534 28.503 14.4939C28.351 14.4344 28.188 14.4039 28.0235 14.4041ZM32.8945 20.8693C32.8945 19.5035 32.9076 18.1501 32.8266 16.7868C32.7455 15.2033 32.3638 13.7979 31.1401 12.64C29.9139 11.4795 28.4314 11.1208 26.758 11.0441C25.3148 10.9674 23.8846 10.9797 22.4439 10.9797C21.0007 10.9797 19.5705 10.9674 18.1298 11.0441C16.4565 11.1208 14.9714 11.482 13.7477 12.64C12.5215 13.8004 12.1424 15.2033 12.0613 16.7868C11.9803 18.1526 11.9933 19.506 11.9933 20.8693C11.9933 22.2326 11.9803 23.5885 12.0613 24.9518C12.1424 26.5353 12.5241 27.9407 13.7477 29.0986C14.974 30.2591 16.4565 30.6178 18.1298 30.6945C19.5731 30.7712 21.0033 30.7589 22.4439 30.7589C23.8872 30.7589 25.3174 30.7712 26.758 30.6945C28.4314 30.6178 29.9165 30.2566 31.1401 29.0986C32.3664 27.9382 32.7455 26.5353 32.8266 24.9518C32.9102 23.5885 32.8945 22.2351 32.8945 20.8693ZM30.5937 26.7036C30.4028 27.1539 30.1727 27.4904 29.8041 27.8368C29.4354 28.1856 29.0824 28.4034 28.6066 28.584C27.2313 29.1011 23.9656 28.9848 22.4413 28.9848C20.917 28.9848 17.6487 29.1011 16.2734 28.5865C15.7976 28.4058 15.442 28.1881 15.076 27.8392C14.7073 27.4904 14.4772 27.1564 14.2863 26.706C13.7425 25.4021 13.8654 22.3118 13.8654 20.8693C13.8654 19.4268 13.7425 16.334 14.2863 15.0326C14.4772 14.5822 14.7073 14.2457 15.076 13.8993C15.4446 13.553 15.7976 13.3327 16.2734 13.1521C17.6487 12.6375 20.917 12.7538 22.4413 12.7538C23.9656 12.7538 27.2339 12.6375 28.6092 13.1521C29.085 13.3327 29.4406 13.5505 29.8067 13.8993C30.1753 14.2482 30.4054 14.5822 30.5963 15.0326C31.1401 16.334 31.0172 19.4268 31.0172 20.8693C31.0172 22.3118 31.1401 25.4021 30.5937 26.7036Z" fill="#9339F4"/>
<path d="M22.7494 0C10.4196 0 0.390625 9.49054 0.390625 21.1584C0.390625 32.8263 10.4196 42.3168 22.7494 42.3168C35.0792 42.3168 45.1081 32.8263 45.1081 21.1584C45.1081 9.49054 35.0792 0 22.7494 0ZM22.7494 40.9075C11.2423 40.9075 1.87991 32.0477 1.87991 21.1584C1.87991 10.2691 11.2423 1.40933 22.7494 1.40933C34.2564 1.40933 43.6188 10.2691 43.6188 21.1584C43.6188 32.0477 34.2564 40.9075 22.7494 40.9075Z" fill="white"/>
</svg>
