<svg width="46" height="43" viewBox="0 0 46 43" fill="none" xmlns="http://www.w3.org/2000/svg">
<path d="M27.9974 15.8167C27.052 15.8167 26.3519 16.0423 25.8039 16.3273C25.7161 16.0317 25.4274 15.8153 25.0872 15.88H20.9261C20.5147 15.8153 20.1815 16.1307 20.3083 16.5398V31.0554C20.1815 31.4248 20.5147 31.7416 20.9261 31.7152H25.0872C25.4985 31.7416 25.8318 31.4248 25.8318 31.0356L25.8304 22.2629C25.829 22.2589 25.8137 21.8393 26.094 21.5503C26.3185 21.3207 26.7047 21.2032 27.2388 21.2032C28.1285 21.2032 28.5245 21.5477 28.6723 22.3183V31.0356C28.5259 31.4248 28.8592 31.7416 29.2705 31.7152H33.6561C34.0675 31.7416 34.4008 31.4248 34.2529 31.0356V22.0254C34.3994 17.4437 30.9509 15.8167 27.9974 15.8167ZM32.9101 30.3956H30.0152V22.3183C30.0152 20.7599 28.9512 19.7939 27.2402 19.7939C26.2725 19.7939 25.5194 20.0631 25.0007 20.5936C24.2798 21.3326 24.3355 22.2695 24.4903 22.478V30.3956H21.6707V17.226H24.3425V17.6694C24.3414 17.8014 24.3797 17.9311 24.453 18.0435C24.5264 18.1559 24.6317 18.2465 24.7569 18.3048C24.8822 18.3631 25.0223 18.3868 25.1611 18.3731C25.2999 18.3594 25.4319 18.309 25.5418 18.2276L25.737 18.085C26.3017 17.6641 26.886 17.2273 27.9988 17.2273C29.1506 17.2273 32.9115 17.5744 32.9115 22.0267V30.3956H32.9101Z" fill="#FFF59C"/>
<path d="M16.1237 9.23706C14.5591 9.23706 13.2874 10.4405 13.2874 11.9211C13.2874 13.4017 14.5591 14.6052 16.1237 14.6052C17.6882 14.6052 18.9599 13.4017 18.9599 11.9211C18.9599 10.4405 17.6882 9.23706 16.1237 9.23706ZM16.1237 13.1959C15.3818 13.1959 14.7766 12.6231 14.7766 11.9211C14.7766 11.2191 15.3818 10.6464 16.1237 10.6464C16.8655 10.6464 17.4707 11.2191 17.4707 11.9211C17.4707 12.6231 16.8655 13.1959 16.1237 13.1959Z" fill="#FFF59C"/>
<path d="M18.1148 15.8154H13.9761C13.5647 15.8154 13.2314 16.1308 13.3346 16.5399V31.0555C13.2314 31.4249 13.5647 31.7416 13.9761 31.7153H18.1148C18.5262 31.7416 18.8595 31.4249 18.8595 31.0357V16.5201C18.8595 16.3332 18.781 16.154 18.6414 16.0218C18.5017 15.8897 18.3123 15.8154 18.1148 15.8154ZM17.518 30.3957H14.7207V17.2261H17.518V30.3957Z" fill="#FFF59C"/>
<path d="M23.0959 0C10.7661 0 0.737183 9.49054 0.737183 21.1584C0.737183 32.8263 10.7661 42.3168 23.0959 42.3168C35.4257 42.3168 45.4547 32.8263 45.4547 21.1584C45.4547 9.49054 35.4257 0 23.0959 0ZM23.0959 40.9075C11.5889 40.9075 2.22646 32.0477 2.22646 21.1584C2.22646 10.2691 11.5889 1.40933 23.0959 1.40933C34.603 1.40933 43.9654 10.2691 43.9654 21.1584C43.9654 32.0477 34.603 40.9075 23.0959 40.9075Z" fill="white"/>
</svg>
