<svg width="482" height="377" viewBox="0 0 482 377" fill="none" xmlns="http://www.w3.org/2000/svg">
<g clip-path="url(#clip0)">
<path d="M333.707 231.166H325.693V243.666H333.707V231.166Z" fill="#E9E245"/>
<path d="M344.554 228.221L338.887 234.114L346.9 242.446L352.567 236.553L344.554 228.221Z" fill="white"/>
<path d="M314.844 228.22L306.831 236.552L312.498 242.444L320.511 234.113L314.844 228.22Z" fill="white"/>
<path d="M393.814 306.166H329.7C327.487 306.166 325.693 308.032 325.693 310.333V376.999H397.821V310.333C397.821 308.032 396.027 306.166 393.814 306.166Z" fill="white"/>
<path d="M349.735 208.608L332.689 190.883L316.801 170.228C315.488 168.515 313.125 168.151 311.391 169.395L259.298 206.895C257.885 207.915 257.256 209.76 257.735 211.478L276.256 276.999H265.585V289.499H297.642V276.999H284.611L266.239 212.045L312.87 178.474L324.322 193.358L309.664 208.608C306.535 211.862 306.535 217.139 309.665 220.392C311.168 221.954 313.205 222.832 315.33 222.833H344.069C348.495 222.832 352.082 219.1 352.082 214.498C352.081 212.288 351.237 210.17 349.735 208.608Z" fill="#E9E245"/>
<path d="M429.878 247.833C427.665 247.833 425.871 249.698 425.871 251.999C425.871 254.3 427.665 256.166 429.878 256.166H477.964V247.833H429.878Z" fill="#E9E245"/>
<path d="M437.892 281.166C435.679 281.166 433.885 283.032 433.885 285.333C433.885 287.634 435.679 289.499 437.892 289.499H473.956V281.166H437.892Z" fill="#E9E245"/>
<path d="M436.634 168.666H425.871V185.333H441.899V176.604V168.666H436.634Z" fill="#E9E245"/>
<path d="M401.828 156.166H385.799V172.833H401.828V156.166Z" fill="white"/>
<path d="M442.837 154.562L441.619 160.333H445.906C448.119 160.333 449.914 162.198 449.914 164.499V173.249L455.043 174.42L458.493 158.145L442.837 154.562Z" fill="white"/>
<path d="M477.964 126.999H365.764C363.551 126.999 361.757 128.865 361.757 131.166V206.166C361.757 208.467 363.551 210.333 365.764 210.333H477.964C480.176 210.333 481.971 208.467 481.971 206.166V131.166C481.971 128.865 480.176 126.999 477.964 126.999ZM409.842 176.999C409.842 179.3 408.048 181.166 405.835 181.166H381.792C379.579 181.166 377.785 179.3 377.785 176.999V151.999C377.785 149.698 379.579 147.833 381.792 147.833H405.835C408.048 147.833 409.842 149.698 409.842 151.999V176.999ZM467.196 155.874L462.027 180.291C461.55 182.538 459.412 183.958 457.251 183.462L449.914 181.787V189.499C449.914 191.8 448.119 193.666 445.906 193.666H421.864C419.651 193.666 417.857 191.8 417.857 189.499V164.499C417.857 162.198 419.651 160.333 421.864 160.333H433.412L435.889 148.708C436.364 146.46 438.501 145.038 440.662 145.532C440.663 145.532 440.664 145.533 440.665 145.533L464.143 150.912C466.304 151.406 467.671 153.627 467.196 155.874Z" fill="#E9E245"/>
<path d="M441.899 260.333C437.473 260.333 433.885 264.063 433.885 268.666C433.885 273.268 437.473 276.999 441.899 276.999H481.971V260.333H441.899Z" fill="white"/>
<path d="M389.069 285.333V276.999H373.041C367.965 277.021 363.449 280.356 361.757 285.333C360.065 280.356 355.549 277.021 350.473 276.999H334.444V285.333H329.7V289.499H393.814V285.333H389.069Z" fill="white"/>
<path d="M241.543 293.666V310.333H253.564V376.999H269.593V310.333H317.678C317.678 303.429 323.06 297.833 329.7 297.833H393.814C400.453 297.833 405.835 303.429 405.835 310.333H453.921V376.999H469.949V310.333H481.971V293.666H241.543Z" fill="#E9E245"/>
</g>
<path d="M109.779 178.688L73.0756 125.742L88.6533 114.067L123.044 143.172L107.255 100.124L122.868 88.4217L159.572 141.368L149.902 148.616L121.009 106.938L139.669 156.285L129.647 163.797L90.5572 129.763L119.449 171.44L109.779 178.688ZM183.448 123.472L168.001 101.188L127.861 84.679L140.063 75.5333L166.716 87.3876L164.081 57.5318L176.072 48.5443L178.424 93.4851L193.822 115.696L183.448 123.472ZM63.0768 258.699L72.503 250.098C75.5328 253.132 78.5411 254.774 81.5281 255.023C84.5385 255.254 87.6261 254.184 90.7909 251.812C94.1432 249.299 96.1626 246.688 96.849 243.978C97.5422 241.227 97.2128 238.876 95.8608 236.926C94.9929 235.674 93.8951 234.887 92.5675 234.565C91.2466 234.201 89.4701 234.362 87.2377 235.047C85.7183 235.528 82.4062 236.839 77.3015 238.982C70.7373 241.744 65.6122 242.932 61.9263 242.549C56.7419 242.007 52.6976 239.642 49.7933 235.452C47.9239 232.756 46.9182 229.686 46.776 226.244C46.6407 222.76 47.5422 219.358 49.4807 216.039C51.4426 212.703 54.4044 209.55 58.3663 206.58C64.8365 201.731 70.7107 199.541 75.9889 200.012C81.2905 200.466 85.7091 203.063 89.2448 207.803L79.1617 216.074C76.8302 213.688 74.517 212.458 72.2223 212.385C69.9343 212.27 67.3251 213.311 64.3947 215.508C61.3706 217.774 59.4452 220.187 58.6185 222.746C58.0842 224.39 58.2927 225.899 59.2441 227.271C60.112 228.523 61.3705 229.208 63.0196 229.326C65.1169 229.474 69.1229 228.264 75.0378 225.696C80.9527 223.129 85.5765 221.602 88.9091 221.117C92.2485 220.59 95.3908 220.96 98.3362 222.228C101.288 223.455 103.924 225.742 106.244 229.088C108.347 232.122 109.497 235.578 109.692 239.457C109.887 243.335 108.934 247.049 106.835 250.598C104.719 254.123 101.422 257.564 96.9445 260.92C90.4274 265.805 84.3541 268.015 78.7247 267.552C73.0786 267.064 67.8626 264.113 63.0768 258.699ZM137.295 229.249L106.801 185.26L91.5041 196.725L85.295 187.769L126.261 157.063L132.47 166.02L117.209 177.459L147.704 221.448L137.295 229.249ZM132.943 152.056L143.351 144.254L163.23 172.93C166.385 177.481 168.558 180.333 169.751 181.489C171.699 183.322 173.964 184.277 176.546 184.353C179.135 184.388 181.883 183.316 184.79 181.138C187.744 178.924 189.546 176.64 190.195 174.288C190.827 171.911 190.67 169.706 189.723 167.672C188.776 165.638 186.85 162.526 183.946 158.336L163.641 129.046L174.05 121.245L193.328 149.054C197.734 155.41 200.566 160.112 201.823 163.158C203.079 166.204 203.572 169.201 203.3 172.149C203.051 175.079 202.036 178.035 200.256 181.016C198.458 183.973 195.52 186.98 191.441 190.038C186.518 193.728 182.378 195.952 179.022 196.712C175.672 197.43 172.616 197.415 169.854 196.668C167.075 195.897 164.742 194.664 162.855 192.969C160.072 190.445 156.627 186.221 152.521 180.298L132.943 152.056ZM185.021 113.022L204.045 98.7627C208.335 95.5472 211.839 93.4331 214.557 92.4205C218.215 91.0687 221.932 90.7524 225.708 91.4713C229.484 92.1903 233.111 93.8255 236.59 96.377C240.052 98.9044 243.502 102.648 246.94 107.608C249.961 111.966 252.038 116.117 253.169 120.062C254.55 124.881 254.872 129.378 254.133 133.554C253.58 136.713 252.118 139.949 249.748 143.262C247.968 145.73 245.156 148.405 241.311 151.287L221.725 165.968L185.021 113.022ZM201.639 114.177L225.949 149.245L233.72 143.421C236.627 141.242 238.609 139.501 239.664 138.197C241.052 136.499 241.938 134.719 242.322 132.858C242.729 130.979 242.467 128.596 241.534 125.709C240.585 122.799 238.692 119.297 235.854 115.204C233.017 111.11 230.487 108.232 228.265 106.568C226.043 104.904 223.873 103.933 221.756 103.654C219.639 103.374 217.457 103.747 215.211 104.772C213.524 105.525 210.559 107.491 206.315 110.671L201.639 114.177ZM287.341 116.786L271.893 94.5028L231.754 77.9938L243.956 68.8481L270.609 80.7023L267.973 50.8466L279.964 41.859L282.317 86.7998L297.714 109.011L287.341 116.786ZM134.077 302.846L127.042 292.697L136.923 285.291L143.959 295.44L134.077 302.846ZM173.681 243.581L186.051 239.304C188.51 246.242 188.911 252.472 187.253 257.995C185.603 263.477 182.011 268.291 176.479 272.437C169.633 277.568 162.346 279.39 154.617 277.901C146.872 276.389 140.112 271.468 134.337 263.137C128.228 254.325 125.703 245.827 126.762 237.642C127.804 229.433 131.936 222.623 139.156 217.211C145.462 212.485 151.911 210.56 158.504 211.436C162.417 211.942 166.428 213.875 170.538 217.234L161.988 227.484C159.475 225.196 156.695 223.987 153.648 223.856C150.624 223.708 147.729 224.671 144.963 226.744C141.142 229.608 139.012 233.345 138.574 237.954C138.159 242.546 140.138 247.996 144.511 254.304C149.151 260.997 153.628 264.886 157.942 265.97C162.256 267.054 166.288 266.191 170.039 263.379C172.805 261.306 174.559 258.619 175.299 255.32C176.04 252.021 175.501 248.108 173.681 243.581ZM185.998 224.196C182.259 218.803 179.907 213.688 178.94 208.851C178.243 205.275 178.16 201.661 178.69 198.007C179.244 194.335 180.37 191.077 182.067 188.232C184.31 184.428 187.53 180.954 191.727 177.808C199.322 172.115 207.071 169.984 214.974 171.415C222.9 172.828 229.851 177.845 235.827 186.464C241.752 195.012 244.13 203.401 242.96 211.632C241.774 219.838 237.395 226.779 229.823 232.455C222.157 238.2 214.401 240.373 206.555 238.973C198.692 237.549 191.84 232.623 185.998 224.196ZM196.473 215.796C200.629 221.791 205.132 225.332 209.981 226.417C214.813 227.478 219.304 226.454 223.453 223.344C227.603 220.234 229.942 216.157 230.471 211.114C231.007 206.029 229.147 200.416 224.891 194.277C220.685 188.209 216.246 184.658 211.574 183.622C206.926 182.57 202.456 183.651 198.166 186.867C193.876 190.082 191.47 194.191 190.948 199.192C190.408 204.17 192.25 209.705 196.473 215.796ZM262.146 206.856L225.442 153.91L241.02 142.234L275.41 171.339L259.622 128.291L275.235 116.589L311.938 169.535L302.268 176.783L273.376 135.105L292.035 184.453L282.014 191.964L242.924 157.93L271.816 199.608L262.146 206.856Z" fill="white"/>
<defs>
<clipPath id="clip0">
<rect width="240.428" height="250" fill="white" transform="translate(241.543 126.999)"/>
</clipPath>
</defs>
</svg>
